<?xml version="1.0" encoding="utf-8"?>
<!DOCTYPE svg PUBLIC "-//W3C//DTD SVG 20010904//EN" "http://www.w3.org/TR/2001/REC-SVG-20010904/DTD/svg10.dtd">
<svg version="1.0" xmlns="http://www.w3.org/2000/svg" width="128px" height="128px" viewBox="0 0 128 128" preserveAspectRatio="xMidYMid meet">
 <g fill="#00000054">
  <path d="M53.75 127.50 c-0.80 -0.25 -2.75 -0.65 -4.25 -1 -20.90 -4.50 -40 -22 -46.40 -42.50 -2.80 -8.85 -3.20 -11.85 -2.95 -21 0.30 -11.85 1.45 -16.85 6 -26.50 7.75 -16.40 23.35 -29.60 40.60 -34.30 5.95 -1.60 8.15 -1.85 17.25 -1.85 9.10 0 11.30 0.25 17.25 1.85 21.95 5.95 40.55 25.45 45.25 47.30 0.30 1.50 0.80 3.55 1.05 4.55 0.60 2.35 0.60 17.55 0 19.90 -0.25 1 -0.75 3.05 -1.05 4.55 -3.90 18.15 -17.65 35.20 -35.10 43.45 -4.65 2.20 -8.80 3.65 -12.90 4.55 -1.50 0.30 -3.55 0.80 -4.55 1.05 -2.20 0.55 -18.10 0.50 -20.20 -0.05z m19.35 -3.55 c5.10 -1 9.70 -2.40 13.50 -4.05 3.75 -1.60 2.50 -1.60 -1.90 0 -8.70 3.15 -19.65 4.35 -28.30 3.05 -3.65 -0.50 -12.25 -2.45 -14.15 -3.20 -0.65 -0.25 -0.85 -0.25 -0.50 0.10 0.70 0.70 6.35 2.65 7.65 2.65 0.55 0 1.20 0.25 1.35 0.50 0.15 0.30 1.05 0.50 1.90 0.55 0.90 0 2.05 0.20 2.60 0.45 1.45 0.60 14.70 0.60 17.85 -0.05z m15.60 -21.25 c0.95 -0.90 1.05 -3.75 0.20 -4.60 -0.45 -0.45 -5.45 -0.60 -19.50 -0.60 -18.55 0 -18.90 0 -18.90 -1 0 -0.55 -0.20 -1 -0.50 -1 -0.90 0 -0.55 -3.10 0.60 -4.95 0.60 -1 2.55 -4.05 4.30 -6.80 1.80 -2.75 3.75 -5.80 4.35 -6.75 8.50 -13.20 7.20 -12.05 13.40 -11.70 6.75 0.35 7.45 0.05 6.95 -3.05 -0.35 -2 -0.35 -2 -4 -2.15 -3.60 -0.15 -3.60 -0.15 -3.60 -1.70 0 -1.10 1.95 -4.60 7.25 -12.95 8.15 -12.80 8.95 -14.40 8.50 -16.75 -0.60 -3.25 -0.20 -3.20 -23.90 -3.20 -12.95 0 -21.80 0.20 -22.35 0.50 -2.05 1.10 -1.60 4.60 0.80 5.50 1.20 0.50 1.20 0.50 1.10 27 -0.10 20.85 0 26.55 0.50 26.75 1.30 0.50 0.60 3.50 -1.90 7.75 -2.85 4.85 -3.30 7.70 -1.50 9.50 0.95 0.95 1.65 1 24.20 1 20.45 0 23.30 -0.10 24 -0.80z m31.80 -17.50 c0 -0.40 -0.20 -0.60 -0.50 -0.45 -0.25 0.15 -0.50 0.65 -0.50 1.05 0 0.40 0.25 0.60 0.50 0.45 0.30 -0.15 0.50 -0.65 0.50 -1.05z m-113.45 -3.35 c-0.65 -0.65 -0.75 0.05 -0.20 1.50 0.35 0.85 0.40 0.85 0.55 -0.05 0.10 -0.50 -0.05 -1.15 -0.35 -1.45z m114.80 -0.35 c0.55 -1.80 1.15 -4.30 2.15 -9 0.70 -3.25 0.40 -15.55 -0.45 -19.25 -0.35 -1.35 -0.75 -3.25 -0.90 -4.15 -0.15 -0.90 -0.50 -1.75 -0.75 -1.95 -0.35 -0.20 -0.40 0.30 -0.20 1.40 2 10.75 2.10 19.85 0.25 29.45 -0.30 1.50 -0.75 3.15 -1 3.60 -0.55 1.10 -0.60 2.80 -0.05 2.15 0.20 -0.30 0.65 -1.30 0.95 -2.25z m-115.75 -3.95 c-2.35 -7.95 -1.55 -24.15 1.60 -33.20 0.50 -1.35 0.75 -2.55 0.60 -2.70 -0.15 -0.15 -0.40 0 -0.50 0.40 -0.15 0.40 -0.60 1.85 -1.10 3.20 -2.25 6.70 -2.80 9.90 -3.05 17.75 -0.25 6.95 0.15 10.10 2.20 17 0.30 1.05 0.35 1.10 0.55 0.30 0.10 -0.55 -0.05 -1.75 -0.30 -2.75z m114.95 -33.20 c-0.65 -0.65 -0.75 0.05 -0.20 1.50 0.35 0.85 0.40 0.85 0.55 -0.05 0.10 -0.50 -0.05 -1.15 -0.35 -1.45z m-81.65 -34.75 c1.75 -0.85 6.55 -2.45 10.85 -3.55 3.50 -0.90 7.85 -1.30 13.75 -1.25 8.25 0.10 11.15 0.45 17.65 2.30 1 0.30 2 0.45 2.10 0.30 0.35 -0.30 -3.40 -1.55 -7.25 -2.40 -1.50 -0.30 -3.55 -0.80 -4.50 -1.10 -2.05 -0.55 -14.60 -0.25 -18.25 0.50 -5.20 1.05 -11.65 3.20 -14.75 4.85 -2.60 1.40 -2.30 1.65 0.40 0.35z"/>
  <path d="M52 72 c0 -0.25 -0.35 -0.50 -0.75 -0.50 -0.55 0 -0.75 -0.55 -0.75 -2 0 -2.40 1.75 -4.50 3.65 -4.50 0.90 0 1.35 -0.35 1.55 -1.25 0.25 -1.05 0.60 -1.25 2.05 -1.25 1.60 0 1.75 0.15 1.75 1.45 0 2.10 -0.50 3.05 -1.55 3.05 -0.65 0 -0.95 0.35 -0.95 1.20 0 0.65 -0.40 1.90 -0.85 2.75 -0.70 1.25 -1.25 1.55 -2.50 1.55 -0.90 0 -1.65 -0.20 -1.65 -0.50z"/>
  <path d="M51.60 59.40 c-0.45 -0.45 -0.60 -4 -0.60 -13.75 0 -12.45 0.05 -13.15 0.95 -13.65 0.60 -0.30 5.90 -0.50 13.75 -0.50 12.80 0 12.80 0 12.80 2.10 0 1.65 -0.55 2.95 -3.05 6.85 -13.55 21.40 -11.60 19.30 -17.70 19.45 -3.85 0.10 -5.70 -0.05 -6.15 -0.50z"/>
 </g>
 <g fill="#ff967b">
  <path d="M53.75 125.50 c-0.55 -0.25 -1.70 -0.45 -2.60 -0.45 -0.85 -0.05 -1.75 -0.25 -1.90 -0.55 -0.15 -0.25 -0.80 -0.50 -1.35 -0.50 -2.80 0 -12.70 -4.55 -18.90 -8.65 -4.65 -3.10 -13.15 -11.65 -16.40 -16.45 -4.85 -7.25 -8.05 -15.15 -10.10 -24.90 -0.65 -3.20 -0.40 -17.95 0.40 -21.75 2.60 -12.50 8.20 -22.80 17.35 -32 9.25 -9.25 19.40 -14.75 32 -17.35 3.55 -0.70 19.15 -1.10 21.25 -0.50 0.95 0.30 3 0.80 4.50 1.10 10.80 2.30 21.25 8.20 29.75 16.80 5.70 5.75 9.30 10.75 12.25 17.05 1.15 2.45 2.30 4.80 2.55 5.25 0.25 0.50 0.45 1.35 0.45 1.85 0 0.55 0.20 1.10 0.45 1.25 0.25 0.15 0.55 1 0.70 1.90 0.15 0.90 0.55 2.80 0.90 4.15 0.85 3.65 1.15 18.90 0.45 22.25 -1.40 6.60 -1.80 8.20 -3 11.25 -1.15 3.15 -4.95 10.40 -7.10 13.60 -3.10 4.70 -12 13.65 -16.65 16.75 -7.35 4.85 -15.05 8 -24.15 9.85 -3.15 0.65 -19.40 0.70 -20.85 0.05z m16 -4.05 c11.85 -1.55 21.60 -5.40 29.75 -11.75 3.50 -2.70 9.30 -8.65 11.70 -12.05 2.20 -3.10 6.80 -12.05 6.80 -13.25 0 -0.45 0.25 -1 0.50 -1.15 0.30 -0.15 0.50 -0.85 0.50 -1.50 0 -0.65 0.20 -1.30 0.45 -1.45 0.45 -0.30 0.70 -1.55 1.55 -7.80 1.05 -7.85 1.15 -9.70 0.55 -13.90 -0.95 -7.10 -2.25 -12.85 -3.15 -13.80 -0.20 -0.30 -0.40 -0.80 -0.40 -1.15 0 -1.25 -3.60 -8.25 -6.35 -12.30 -4.40 -6.55 -10.80 -12.65 -17.40 -16.65 -3.35 -2 -9 -4.70 -9.95 -4.70 -0.40 0 -0.85 -0.20 -1 -0.45 -0.15 -0.25 -0.90 -0.55 -1.65 -0.70 -0.80 -0.15 -2.40 -0.55 -3.65 -0.85 -7.95 -2.05 -19.35 -2.20 -26.25 -0.45 -12.20 3.15 -20.55 7.70 -28.65 15.65 -10.70 10.50 -16.70 25.10 -16.80 40.80 0 4.75 1.20 13.85 2.20 16.25 0.20 0.55 0.70 2 1.05 3.25 2.05 6.85 7.85 15.80 14.10 21.85 7.95 7.65 16.15 12.25 26.15 14.55 8.75 2.05 13.45 2.45 19.95 1.55z"/>
  <path d="M89.50 101.75 c0 -1.85 1.20 -2.50 1.60 -0.85 0.30 1.35 -0.10 2.60 -0.90 2.60 -0.45 0 -0.70 -0.55 -0.70 -1.75z"/>
  <path d="M56 83.40 c0 -1.70 0.15 -1.90 1.25 -1.90 1.55 0 1.60 0.55 0 2.35 -1.20 1.40 -1.20 1.40 -1.25 -0.45z"/>
  <path d="M59.50 77.90 c0 -1.70 0.15 -1.90 1.25 -1.90 1.55 0 1.60 0.55 0 2.35 -1.20 1.40 -1.20 1.40 -1.25 -0.45z"/>
  <path d="M63 72.40 c0 -1.70 0.15 -1.90 1.25 -1.90 1.55 0 1.60 0.55 0 2.35 -1.20 1.40 -1.20 1.40 -1.25 -0.45z"/>
  <path d="M59.50 59.20 c0 -0.95 0.25 -1.20 0.90 -1.10 0.55 0.10 1.30 -0.15 1.75 -0.55 0.75 -0.60 0.85 -0.50 0.85 1.15 0 1.75 -0.05 1.80 -1.75 1.80 -1.55 0 -1.75 -0.15 -1.75 -1.30z"/>
  <path d="M66 51.70 c0 -0.60 2.75 -4.70 3.15 -4.70 0.20 0 0.35 0.80 0.35 1.75 0 0.95 -0.20 1.75 -0.50 1.75 -0.25 0 -0.50 0.35 -0.50 0.75 0 0.45 -0.45 0.75 -1.25 0.75 -0.70 0 -1.25 -0.15 -1.25 -0.30z"/>
  <path d="M69.50 46.05 c0 -0.30 0.55 -1.15 1.25 -1.90 1.20 -1.40 1.20 -1.40 1.25 0.50 0 1.65 -0.15 1.85 -1.25 1.85 -0.70 0 -1.25 -0.20 -1.25 -0.45z"/>
 </g>
 <g fill="#e77b8d">
  <path d="M40.80 104.40 c-0.15 -0.35 -0.35 -3.20 -0.50 -6.25 -0.30 -5.60 -0.30 -5.65 1.20 -8.35 1.45 -2.50 1.50 -2.75 0.70 -3.20 -0.80 -0.45 -0.40 -1.25 3.35 -7 3.80 -5.95 4.35 -6.55 5.70 -6.55 2.20 -0.05 2.70 1.55 2.80 9.25 0.05 6.50 0.05 6.55 -1.50 9 -0.80 1.35 -1.30 2.55 -1.05 2.60 0.30 0.10 0.50 0.60 0.50 1.15 0 0.90 0.70 0.95 17.90 1.05 17.85 0.15 17.85 0.15 18 3.40 0.30 6.15 3 5.50 -23.70 5.50 -18.15 0 -23.25 -0.15 -23.40 -0.60z"/>
  <path d="M65.50 69.25 c0 -0.60 -0.90 -0.75 -4.95 -0.75 -4.95 0 -4.95 0 -5.25 -1.70 -0.30 -1.45 0 -2.25 1.55 -4.85 2.15 -3.45 3.45 -4.60 4.05 -3.55 0.30 0.45 0.60 0.30 1.05 -0.50 0.55 -1.10 0.90 -1.15 6.55 -1.25 5.90 -0.10 6 -0.05 5.45 0.95 -0.40 0.75 -0.40 0.95 0 0.70 1.25 -0.80 0.35 2.60 -1.40 5.45 -1.45 2.30 -2.15 2.95 -2.95 2.85 -0.75 -0.10 -1.40 0.35 -2.20 1.60 -1.25 1.90 -1.90 2.25 -1.90 1.05z"/>
  <path d="M76.20 35.40 c1.70 -2.35 1.55 -2.40 -10.60 -2.40 -9.25 0 -11.60 0.15 -12.40 0.75 -0.65 0.50 -2.35 0.70 -5.85 0.75 -4.40 0 -4.95 -0.10 -6 -1.15 -0.90 -0.90 -1.10 -1.65 -1.05 -3.85 0 -1.50 0.15 -3.35 0.35 -4.15 0.35 -1.35 0.35 -1.35 23.50 -1.25 23.10 0.15 23.10 0.15 23.25 4.45 0.20 5.50 -0.20 5.95 -4.70 5.95 -2.65 0 -3.30 0.15 -3.80 1 -0.40 0.60 -1.20 1 -2.05 1 -1.35 0 -1.40 -0.05 -0.65 -1.10z"/>
 </g>
 <g fill="#ffe2b1">
  <path d="M50 95.60 c0 -0.50 1.10 -1.60 1.60 -1.60 0.20 0 0.40 0.45 0.40 1 0 0.65 -0.35 1 -1 1 -0.55 0 -1 -0.20 -1 -0.40z"/>
  <path d="M41.90 86.45 c-0.95 -0.55 -1.25 -3.45 -0.40 -3.45 0.35 0 0.50 -8.60 0.50 -24.80 0 -24.35 0 -24.80 -1 -25.05 -1.30 -0.35 -1.30 -1.65 0 -1.65 0.55 0 1 0.35 1 0.75 0 0.65 1 0.75 6.15 0.75 4.40 0.05 5.85 0.15 5.25 0.55 -0.80 0.45 -0.90 1.60 -0.90 12.15 0 9.85 0.10 11.80 0.75 12.30 0.55 0.45 1.80 0.55 4.25 0.35 4.30 -0.35 4.35 -0.15 1.25 4.40 -2.20 3.30 -2.40 4.25 -0.95 4.25 0.60 0 0.60 0.20 0.20 1 -0.30 0.60 -1.05 1 -1.75 1 -1.10 0 -1.25 0.20 -1.25 1.90 0 1.20 -0.45 2.55 -1.30 3.75 -1.25 1.85 -2.20 2.05 -2.20 0.50 0 -0.40 -1.85 2.10 -4.15 5.55 -2.25 3.45 -4.20 6.30 -4.35 6.30 -0.15 -0.05 -0.65 -0.25 -1.10 -0.55z m13.60 -19.20 c0 -1.10 -0.90 -0.90 -2.25 0.50 -1.40 1.35 -1.60 2.25 -0.50 2.25 0.40 0 0.75 0.30 0.75 0.65 0 0.30 0.45 -0.15 1 -1.05 0.55 -0.90 1 -1.95 1 -2.35z"/>
  <path d="M69.40 66.60 c-0.75 -0.30 -0.55 -0.85 1.40 -4 2.45 -4.05 2.65 -4.85 1.15 -4.45 -1 0.25 -1 0.25 -0.15 -0.70 1.15 -1.25 2.95 -1.35 2.25 -0.05 -0.40 0.75 -0.10 0.85 2.85 1 1.85 0.10 3.60 0.40 3.90 0.65 0.35 0.25 0.60 1.90 0.65 3.70 0.05 2.70 -0.10 3.30 -0.90 3.75 -1.10 0.55 -9.80 0.65 -11.15 0.10z"/>
 </g>
 <g fill="#dd5535">
  <path d="M39.40 104.45 c-1.20 -0.65 -2.05 -4.15 -1.65 -6.65 0.40 -2.35 2.70 -6.80 3.55 -6.80 0.40 0 0.60 1.85 0.65 5.85 0.05 4.40 0.25 6.05 0.80 6.65 0.40 0.45 0.75 1 0.75 1.15 0 0.55 -3.15 0.40 -4.10 -0.20z"/>
  <path d="M85.75 103.90 c0.85 -2.60 0.85 -5.30 0 -6.60 -0.85 -1.30 -0.85 -1.30 1.60 -1.30 1.35 0 2.70 0.25 3.05 0.60 0.35 0.35 0.60 1.95 0.60 3.70 0 3.80 -0.70 4.70 -3.60 4.70 -1.85 0 -2 -0.10 -1.65 -1.10z"/>
  <path d="M52.75 89.45 c-0.20 -0.25 -0.30 -3.30 -0.30 -6.70 0.05 -3.75 -0.15 -6.30 -0.45 -6.50 -0.95 -0.60 -0.50 -2 1.90 -5.75 2.40 -3.75 2.40 -3.75 8 -3.60 3.10 0.10 5.60 0.35 5.60 0.55 0 0.30 -6.10 10.10 -12.65 20.20 -1.65 2.60 -1.65 2.55 -2.10 1.80z"/>
  <path d="M73 58.70 c0 -0.25 -2.25 -0.40 -5.50 -0.30 -3 0.15 -5.50 0.05 -5.50 -0.20 0 -0.45 13.05 -21.10 14.90 -23.55 1.15 -1.55 1.40 -1.65 4.35 -1.65 4.10 0 4.75 -0.60 4.75 -4.50 0 -1.65 -0.25 -3.10 -0.55 -3.30 -1.05 -0.65 0.95 -1.30 2.05 -0.70 2.15 1.15 2.70 6.25 1.05 9.75 -1.15 2.45 -15.55 25.10 -15.55 24.45z"/>
  <path d="M39.20 31.75 c-1.10 -1.70 -0.75 -6.10 0.60 -7.10 0.80 -0.60 3.20 -0.95 3.20 -0.45 0 0.15 -0.25 0.85 -0.55 1.65 -0.30 0.75 -0.50 2.70 -0.50 4.30 0 2.50 -0.10 2.85 -0.95 2.85 -0.55 0 -1.35 -0.55 -1.80 -1.25z"/>
 </g>
 <g fill="#ffa291">
  <path d="M71 125.60 c0 -0.70 0.55 -1.05 1.30 -0.75 1.05 0.40 0.85 1.15 -0.30 1.15 -0.55 0 -1 -0.20 -1 -0.40z"/>
  <path d="M73.50 125 c0 -0.25 0.35 -0.50 0.75 -0.50 0.40 0 0.75 0.25 0.75 0.50 0 0.30 -0.35 0.50 -0.75 0.50 -0.40 0 -0.75 -0.20 -0.75 -0.50z"/>
  <path d="M76.50 124.50 c0 -0.25 0.45 -0.50 1 -0.50 0.55 0 1 0.25 1 0.50 0 0.30 -0.45 0.50 -1 0.50 -0.55 0 -1 -0.20 -1 -0.50z"/>
  <path d="M80.50 123.50 c0 -0.25 0.35 -0.50 0.75 -0.50 0.40 0 0.75 0.25 0.75 0.50 0 0.30 -0.35 0.50 -0.75 0.50 -0.40 0 -0.75 -0.20 -0.75 -0.50z"/>
  <path d="M83.50 122.50 c0 -0.25 0.35 -0.50 0.75 -0.50 0.40 0 0.75 0.25 0.75 0.50 0 0.30 -0.35 0.50 -0.75 0.50 -0.40 0 -0.75 -0.20 -0.75 -0.50z"/>
  <path d="M62.65 122.15 c0.45 -0.10 1.25 -0.10 1.75 0 0.45 0.15 0.05 0.25 -0.90 0.25 -0.95 0 -1.35 -0.10 -0.85 -0.25z"/>
  <path d="M86 121.50 c0 -0.25 0.35 -0.50 0.75 -0.50 0.40 0 0.75 0.25 0.75 0.50 0 0.30 -0.35 0.50 -0.75 0.50 -0.40 0 -0.75 -0.20 -0.75 -0.50z"/>
  <path d="M54.90 121.15 c0.60 -0.10 1.50 -0.10 2 0 0.45 0.15 -0.05 0.25 -1.15 0.20 -1.10 0 -1.50 -0.10 -0.85 -0.20z"/>
  <path d="M71.40 121.15 c0.60 -0.10 1.50 -0.10 2 0 0.45 0.15 -0.05 0.25 -1.15 0.20 -1.10 0 -1.50 -0.10 -0.85 -0.20z"/>
  <path d="M5.65 59.65 c-0.90 -0.35 -0.80 -1.15 0.10 -1.15 0.40 0 0.75 0.35 0.75 0.75 0 0.40 -0.05 0.75 -0.10 0.70 -0.10 0 -0.45 -0.15 -0.75 -0.30z"/>
  <path d="M43 9.50 c0 -0.25 0.35 -0.50 0.75 -0.50 0.40 0 0.75 0.25 0.75 0.50 0 0.30 -0.35 0.50 -0.75 0.50 -0.40 0 -0.75 -0.20 -0.75 -0.50z"/>
  <path d="M46 8.50 c0 -0.25 0.35 -0.50 0.75 -0.50 0.40 0 0.75 0.25 0.75 0.50 0 0.30 -0.35 0.50 -0.75 0.50 -0.40 0 -0.75 -0.20 -0.75 -0.50z"/>
  <path d="M50 7.50 c0 -0.25 0.35 -0.50 0.75 -0.50 0.40 0 0.75 0.25 0.75 0.50 0 0.30 -0.35 0.50 -0.75 0.50 -0.40 0 -0.75 -0.20 -0.75 -0.50z"/>
  <path d="M55.50 6.60 c0 -0.70 0.55 -1.05 1.30 -0.75 1.05 0.40 0.85 1.15 -0.30 1.15 -0.55 0 -1 -0.20 -1 -0.40z"/>
  <path d="M69.50 6.80 c0 -0.10 0.35 -0.45 0.75 -0.80 0.60 -0.50 0.75 -0.50 0.75 0.20 0 0.45 -0.35 0.80 -0.75 0.80 -0.40 0 -0.75 -0.10 -0.75 -0.20z"/>
  <path d="M58 6 c0 -0.25 0.45 -0.50 1 -0.50 0.55 0 1 0.25 1 0.50 0 0.30 -0.45 0.50 -1 0.50 -0.55 0 -1 -0.20 -1 -0.50z"/>
  <path d="M60.40 2.15 c0.60 -0.10 1.60 -0.10 2.25 0 0.60 0.10 0.10 0.20 -1.15 0.20 -1.25 0 -1.75 -0.10 -1.10 -0.20z"/>
 </g>
</svg>