<svg id="visual" viewBox="0 0 900 600" width="900" height="600" xmlns="http://www.w3.org/2000/svg" xmlns:xlink="http://www.w3.org/1999/xlink" version="1.1">
    <rect x="0" y="0" width="900" height="600" fill="#ff6363"></rect>
    <path d="M0 433L15 449C30 465 60 497 90 501.7C120 506.3 150 483.7 180 485.2C210 486.7 240 512.3 270 517C300 521.7 330 505.3 360 477.5C390 449.7 420 410.3 450 409.8C480 409.3 510 447.7 540 453.8C570 460 600 434 630 416.8C660 399.7 690 391.3 720 394.5C750 397.7 780 412.3 810 429C840 445.7 870 464.3 885 473.7L900 483L900 601L885 601C870 601 840 601 810 601C780 601 750 601 720 601C690 601 660 601 630 601C600 601 570 601 540 601C510 601 480 601 450 601C420 601 390 601 360 601C330 601 300 601 270 601C240 601 210 601 180 601C150 601 120 601 90 601C60 601 30 601 15 601L0 601Z" fill="#ff7575" stroke-linecap="round" stroke-linejoin="miter"></path>
</svg>