<svg id="visual" viewBox="0 0 900 600" width="900" height="600" xmlns="http://www.w3.org/2000/svg" xmlns:xlink="http://www.w3.org/1999/xlink" version="1.1"><path d="M0 570L21.5 567C43 564 86 558 128.8 560.8C171.7 563.7 214.3 575.3 257.2 577.2C300 579 343 571 385.8 565C428.7 559 471.3 555 514.2 553.5C557 552 600 553 642.8 557.8C685.7 562.7 728.3 571.3 771.2 571.2C814 571 857 562 878.5 557.5L900 553L900 601L878.5 601C857 601 814 601 771.2 601C728.3 601 685.7 601 642.8 601C600 601 557 601 514.2 601C471.3 601 428.7 601 385.8 601C343 601 300 601 257.2 601C214.3 601 171.7 601 128.8 601C86 601 43 601 21.5 601L0 601Z" fill="#fafafa" stroke-linecap="round" stroke-linejoin="miter"></path></svg>