<?xml version="1.0" encoding="UTF-8" standalone="no"?>
<!-- Created with Inkscape (http://www.inkscape.org/) -->

<svg
   version="1.1"
   id="svg9"
   width="403"
   height="588"
   viewBox="0 0 403 588"
   sodipodi:docname="ForTcc.svg"
   inkscape:version="1.1 (c68e22c387, 2021-05-23)"
   xmlns:inkscape="http://www.inkscape.org/namespaces/inkscape"
   xmlns:sodipodi="http://sodipodi.sourceforge.net/DTD/sodipodi-0.dtd"
   xmlns="http://www.w3.org/2000/svg"
   xmlns:svg="http://www.w3.org/2000/svg">
  <defs
     id="defs13" />
  <sodipodi:namedview
     id="namedview11"
     pagecolor="#ffffff"
     bordercolor="#666666"
     borderopacity="1.0"
     inkscape:pageshadow="2"
     inkscape:pageopacity="0.0"
     inkscape:pagecheckerboard="0"
     showgrid="false"
     inkscape:zoom="2"
     inkscape:cx="205.25"
     inkscape:cy="372.75"
     inkscape:window-width="1366"
     inkscape:window-height="705"
     inkscape:window-x="-8"
     inkscape:window-y="-8"
     inkscape:window-maximized="1"
     inkscape:current-layer="g15"
     inkscape:snap-bbox="false" />
  <g
     inkscape:groupmode="layer"
     inkscape:label="Image"
     id="g15">
    <ellipse
       style="fill:#333333;stroke-width:1.08347"
       id="path51235-5"
       cx="201.91422"
       cy="263.14645"
       rx="13.5"
       ry="17" />
    <ellipse
       style="fill:#1a1a1a;stroke-width:1.10996"
       id="path9669-8"
       cx="214.73239"
       cy="263.23947"
       rx="20.704226"
       ry="34.014084" />
    <ellipse
       style="fill:#0088aa"
       id="path42602"
       cx="57.5"
       cy="431.5"
       rx="27"
       ry="22.75" />
    <path
       style="color:#000000;fill:#112b00;stroke-width:0.633521;-inkscape-stroke:none"
       d="m 108.24732,338.59876 c 0,0 2.73573,12.83424 5.95166,18.34767 1.9984,3.42605 8.00119,8.65651 8.00119,8.65651 0.55857,0.75135 -5.04946,10.63947 -9.65615,13.5679 -3.39032,2.15521 -10.03055,5.74056 -11.74799,2.00027 -2.810764,-6.12137 -5.300111,-19.51862 -6.004676,-21.27364 L 89.110782,345.7474 c -0.704562,-1.75502 -0.782097,-8.15726 1.050395,-8.12182 l 8.583213,0.16598 c 1.8325,0.0354 9.50293,0.8072 9.50293,0.8072 z"
       id="rect39292-8"
       sodipodi:nodetypes="casasssssc" />
    <path
       style="color:#000000;fill:#c8beb7;stroke-width:0.846283;-inkscape-stroke:none"
       d="m 123.42652,393.13553 c -4.01945,4.22986 -12.66557,-1.86523 -16.47279,-9.11913 -3.8072,-7.2539 -9.507289,-28.17488 -5.48784,-32.40474 4.01944,-4.22984 16.23634,9.83318 20.04355,17.08708 0.69919,1.33217 13.28481,-4.67392 18.74675,-7.04948 1.44621,-0.629 1.48365,-5.7033 6.34107,-11.05531 8.08606,-8.9094 12.32848,-3.80335 13.35874,-1.96939 8.61429,15.33434 -0.87235,20.69998 -1.61587,22.36694 -1.46262,3.2791 -32.96161,20.08987 -34.91361,22.14403 z"
       id="path40502-8"
       sodipodi:nodetypes="sssssssss" />
    <path
       style="color:#000000;fill:#225500;-inkscape-stroke:none"
       d="m 100.88134,374.76163 c -1.81638,12.72631 -4.666121,26.83696 -6.472652,35.44059 -1.246446,5.93622 -7.496925,6.84693 -15.224186,11.79655 -7.260949,4.65093 -35.490285,27.29971 -52.734305,9.99656 -4.226779,-4.24127 0.842394,-7.71508 -0.558433,-10.33523 -4.513493,-8.44217 0.07155,-16.15127 -0.878168,-17.33055 -7.601917,-9.43948 -4.829824,-43.17865 -3.676372,-52.45621 1.365833,-10.9858 0.312912,-31.54868 15.935644,-37.20539 8.747626,-3.16736 31.883279,5.27202 42.338357,10.9817 10.455078,5.70968 16.362547,10.01964 20.370971,18.82306 4.008424,8.80342 2.336234,20.22005 0.899144,30.28892 z"
       id="path37308"
       sodipodi:nodetypes="sssssssszzs" />
    <path
       style="color:#000000;fill:#0088aa;-inkscape-stroke:none"
       d="m 145.88939,392.05034 c 1e-5,5.85787 -6.35821,13.43503 -12.02081,13.43503 -3.06767,0 -18.0328,14.78519 -18.65979,11.954 -1.23586,-5.58064 2.39633,-24.64915 3.63377,-28.21745 1.91929,-5.53452 8.12598,-12.37437 13.78858,-12.37437 2.43855,0 19.52598,-0.99066 21.28588,0.47999 2.3268,1.94438 -8.02763,11.38757 -8.02763,14.7228 z"
       id="path42708"
       sodipodi:nodetypes="sssssss" />
    <rect
       style="fill:#ffcc00;stroke-width:1.10168"
       id="rect45943"
       width="103.71912"
       height="251.54883"
       x="263.62701"
       y="104.34255"
       ry="5.1507282"
       transform="matrix(0.99980289,-0.01985379,0.0285909,0.9995912,0,0)" />
    <path
       style="color:#000000;fill:#ffd42a;stroke-width:1.20097;-inkscape-stroke:none"
       d="m 396.51014,327.56717 c 0,20.30727 -9.33918,36.76956 -20.85965,36.76956 -11.52047,0 -20.85965,-16.46229 -20.85965,-36.76956 0,-20.30726 1.38423,-38.71409 20.85965,-36.76955 11.46347,1.14458 20.85965,16.46229 20.85965,36.76955 z"
       id="path50553-8"
       sodipodi:nodetypes="sssss" />
    <path
       style="color:#000000;fill:#afdde9;stroke-width:1.02211;-inkscape-stroke:none"
       d="m 218.64422,532.19841 c -16.01353,51.82685 -67.151,45.52139 -158.830267,45.52139 -64.5057759,0 -141.441348,-9.46648 -168.918953,-38.55476 -11.57513,-12.25364 -11.66718,-27.71783 -6.01033,-42.42497 19.840543,-51.58298 135.867136,-94.2766 170.703087,-106.09604 34.83595,-11.81945 56.505193,-67.31401 99.917893,-62.80944 31.53024,3.27163 139.51549,-1.76399 134.96802,52.48779 -2.39172,28.53353 -24.56028,60.93048 -52.04458,102.75591 -12.20644,18.57569 -14.30891,31.39748 -19.78487,49.12012 z"
       id="path43606"
       transform="matrix(1,0,0.2893895,0.95721143,0,0)"
       sodipodi:nodetypes="sssszssss" />
    <path
       style="color:#000000;fill:#87cdde;stroke-width:1.98136;-inkscape-stroke:none"
       d="m 314.53119,486.23894 c -12.69178,7.00335 -55.89522,-21.34867 -72.32244,-20.00071 -26.73061,2.19341 -59.37763,13.97282 -80.08339,1.57664 -33.43042,-20.01423 -2.00045,-35.65453 31.34359,-54.05383 33.34403,-18.3993 87.47543,-17.09015 120.90585,2.92407 33.43042,20.01422 33.50044,51.15453 0.15639,69.55383 z"
       id="path45376"
       sodipodi:nodetypes="ssssss" />
    <path
       style="color:#000000;fill:#ff7f2a;stroke-width:1.89699;-inkscape-stroke:none"
       d="m 309.37401,-403.69911 c 4.3448,-0.39397 79.68432,-15.69064 96.21325,11.31584 5.84022,9.54229 -5.04015,12.49855 -11.158,33.31552 -2.88477,9.81588 -13.95016,39.16003 -17.42419,44.80906 l -14.76744,24.01293 c -8.73628,7.70415 -30.54366,4.47774 -40.57398,4.95322 -5.77122,0.27358 -14.09268,2.12815 -18.71205,2.12815 -14.97596,0 -23.79672,-20.75811 -23.79672,-39.83398 l 0,-38.46267 c 0,-4.4888 -3.56444,-17.89938 -2.34831,-21.82471 3.95202,-12.75595 24.47435,-19.6795 32.56744,-20.41336 z"
       id="rect15222"
       sodipodi:nodetypes="sasscssssss"
       transform="matrix(-0.20483306,0.97879692,-0.98958579,-0.14394428,0,0)" />
    <path
       style="color:#000000;fill:#ff9955;stroke-width:1.55322;-inkscape-stroke:none"
       d="m 236.04219,321.89969 c 5.41085,1.74827 -1.84694,18.14291 -2.40756,27.08387 l -5.00543,28.8542 c -1.36933,7.89361 -6.67559,11.58272 -10.67141,14.33389 -8.35133,5.75 -9.53023,-6.79257 -8.16825,-14.68744 l 6.08126,-35.25065 c 1.07537,-6.23352 4.54878,-11.45646 7.71707,-14.15474 2.66665,-2.27106 9.00166,-7.2947 12.45432,-6.17913 z"
       id="rect19564-6"
       sodipodi:nodetypes="scssssss" />
    <path
       style="color:#000000;fill:#2a7fff;-inkscape-stroke:none"
       d="m 253.5,430.5 c 0,14.91169 -12.46868,28.16815 -27.75,27 -27.75031,-2.12132 -28.27458,-25.35013 -48.41451,-47.58026 -3.468,-3.82792 2.66685,32.85019 -1.94106,41.69983 -5.90472,11.34021 -25.81647,25.00904 -32.22111,-0.69451 -2.95165,-11.84575 -5.48995,-75.34122 5.20168,-82.30006 6.99376,-4.55202 17.37747,-5.41511 27.59591,-0.16691 20.40744,10.48128 41.33536,27.06395 50.77909,34.04191 12.32609,9.10773 26.75,13.08831 26.75,28 z"
       id="path23563"
       sodipodi:nodetypes="sssssssss" />
    <path
       style="color:#000000;fill:#0066ff;-inkscape-stroke:none"
       d="m 418.97447,346.84525 c -1.19347,12.92997 -34.39858,37.92944 -45.5009,49.86978 -2.80272,3.01429 -26.06679,67.66533 -39.67086,76.9894 -9.91493,6.79558 -38.03524,22.70219 -42.7308,10.5845 -3.06494,-7.90962 8.66349,-30.51426 14.6892,-45.14808 8.53368,-20.72458 28.99504,-54.06047 30.25108,-60.04882 1.50641,-7.182 18.64365,-49.68802 24.6996,-53.99371 5.21958,-3.71104 21.53013,-3.99336 28.74097,-1.76438 12.82723,3.96508 30.95489,7.98439 29.52171,23.51131 z"
       id="path25565"
       transform="rotate(17.321448)"
       sodipodi:nodetypes="ssssassss" />
    <path
       style="color:#000000;fill:#5599ff;stroke-width:0.97428;-inkscape-stroke:none"
       d="m 296.70671,455.85783 c -4.74401,11.96722 -41.96417,25.9222 -55.42293,34.00132 -3.39759,2.03955 -42.81939,56.73605 -57.80847,61.57839 -10.92436,3.5292 -40.95441,10.33017 -41.78623,-2.61325 -0.54296,-8.44861 16.50336,-26.50445 26.1163,-38.65922 13.61396,-17.21371 41.62588,-42.90066 44.46144,-48.23409 3.40076,-6.39655 30.99132,-41.81036 37.70771,-44.11368 5.7888,-1.98522 20.67492,2.59339 26.58964,6.8607 10.52159,7.59099 25.83938,16.80902 20.14254,31.17983 z"
       id="path25565-8"
       sodipodi:nodetypes="ssssassss" />
    <path
       style="color:#000000;fill:#d5f6ff;stroke-width:1.07877;-inkscape-stroke:none"
       d="m 250.37754,313.80702 c 1.87568,0.16941 16.13103,7.87595 25.9827,8.96429 9.85167,1.08836 21.63763,-2.45731 32.45643,-3.68595 3.77885,-0.42915 10.12751,1.84179 9.66247,6.99042 l -0.0897,0.99344 c -0.46503,5.14863 -4.96456,6.02121 -7.96993,7.53918 -11.07825,5.59553 -24.42526,5.03658 -34.79678,4.6237 -10.37152,-0.41288 -20.20899,-5.27904 -28.60918,-12.49202 -2.40854,-2.06814 -6.29567,-3.31981 -5.83064,-8.46844 l 0.0897,-0.99344 c 0.46504,-5.14863 7.22925,-3.6406 9.10493,-3.47118 z"
       id="rect21596"
       sodipodi:nodetypes="szsssazasss" />
    <path
       style="color:#000000;fill:#55d400;-inkscape-stroke:none"
       d="m 351.1177,269.20452 c 0,38.5794 -29.47227,67.43145 -71.11403,63.64459 -26.92161,-2.44823 -46.55063,-10.89842 -57.87259,-26.94161 -8.022,-11.36716 -11.74919,-29.28504 -11.49858,-39.40691 0.89169,-36.01384 14.5956,-68.82341 66.44813,-71.75142 41.74709,-2.35738 74.03707,35.87596 74.03707,74.45535 z"
       id="path123"
       sodipodi:nodetypes="ssssss" />
    <rect
       style="fill:#1a1a1a;stroke-width:0.948683"
       id="rect817"
       width="8.3657703"
       height="22.58758"
       x="305.00226"
       y="243.57332"
       ry="5.4641924"
       transform="rotate(3.6393522)" />
    <rect
       style="fill:#1a1a1a;stroke-width:0.948683"
       id="rect817-1"
       width="8.3657703"
       height="22.58758"
       x="215.71181"
       y="287.22256"
       ry="5.4641924"
       transform="rotate(-5.7886818)" />
    <ellipse
       style="fill:#1a1a1a;stroke-width:1.17167"
       id="path9669"
       cx="341.91553"
       cy="268.8591"
       rx="23.070423"
       ry="34.014084" />
    <path
       style="color:#000000;fill:#99ff55;-inkscape-stroke:none"
       d="m 306.7183,207.19014 c 0,7.10581 -6.15766,12.8662 -13.75352,12.8662 -5.20861,1.0434 -31.10895,22.14687 -43.19034,20.94748 -2.47098,-0.24531 8.21207,-21.66489 5.86983,-22.00971 -9.72682,-1.43195 -17.73417,-3.73028 -18.96045,-6.96417 -0.44816,-1.18188 28.16582,-8.7937 28.2609,-9.88956 0.17768,-2.04807 -13.69967,-12.56595 -11.48403,-13.9333 2.9539,-1.82295 10.46137,-1.26663 17.83543,-0.26626 2.5913,0.35154 -6.50114,-11.08613 -4.14619,-10.70891 4.53964,0.72717 19.92953,13.19007 21.37823,13.09907 7.59586,0 18.19014,9.75335 18.19014,16.85916 z"
       id="path9795"
       sodipodi:nodetypes="scssssssscs" />
    <path
       style="color:#000000;fill:#1a1a1a;stroke-width:1.12147;-inkscape-stroke:none"
       d="m 262.09927,304.79916 h 15.37393 c 0.64056,0 1.15625,0.51569 1.15625,1.15625 0,0.64057 -0.51569,1.15625 -1.15625,1.15625 h -10.93814 c 0,0 2.62132,9.29898 0.7513,7.15946 -1.32675,-1.51797 -5.18709,-7.15946 -5.18709,-7.15946 -0.37582,-0.51872 -1.15625,-0.51568 -1.15625,-1.15625 0,-0.64056 0.51569,-1.15625 1.15625,-1.15625 z"
       id="rect13843"
       sodipodi:nodetypes="sssscssss" />
    <ellipse
       style="fill:#ff6600"
       id="path62927"
       cx="364.10617"
       cy="299.96124"
       rx="30.75"
       ry="14.75"
       transform="rotate(17.652557)" />
    <rect
       style="fill:#333333;stroke-width:0.946692"
       id="rect14783"
       width="33.58757"
       height="54.800774"
       x="293.69366"
       y="301.37897"
       ry="7.1666574"
       transform="rotate(9.1304759)" />
    <rect
       style="fill:#55d400;stroke-width:1.0726"
       id="rect14945"
       width="45.508125"
       height="29.720531"
       x="430.68152"
       y="189.84915"
       ry="14.632002"
       transform="matrix(0.86284864,0.50546239,-0.57660574,0.81702253,0,0)" />
    <path
       style="color:#000000;fill:#ff9955;stroke-width:1.07708;-inkscape-stroke:none"
       d="m 438.82279,190.88522 c 8.78566,0.33812 12.07761,6.41303 12.08381,3.18352 -50.56225,-89.38858 -7.10095,-77.8415 4.30793,-56.3353 6.57793,12.39966 26.07578,47.38006 33.70813,69.88293 1.29123,9.88743 -0.29615,14.88609 -6.66942,23.4076 -6.27134,8.38523 -33.83082,0.18194 -43.43045,0.18194 -9.59963,0 -17.32786,-8.12932 -17.32786,-18.22716 v -3.86637 c 0,-10.09784 7.76212,-18.5953 17.32786,-18.22716 z"
       id="rect17011"
       transform="matrix(0.86800141,0.49656174,-0.43189158,0.90192553,0,0)"
       sodipodi:nodetypes="scscsssss" />
    <rect
       style="fill:#55d400;stroke-width:0.77441"
       id="rect14945-5"
       width="30.284359"
       height="23.280533"
       x="356.6015"
       y="186.60117"
       ry="11.461465"
       transform="matrix(0.84889331,0.52856423,-0.39744765,0.91762485,0,0)" />
    <path
       style="color:#000000;fill:#ffb380;stroke-width:0.999999;-inkscape-stroke:none"
       d="m 228.55243,360.27088 c 3.9961,0 6.68272,3.21708 6.02382,7.21317 l -2.95427,17.91695 c -0.65891,3.9961 -4.40643,7.21318 -8.40253,7.21318 -3.9961,0 -6.68272,-3.21708 -6.02381,-7.21318 l 2.95427,-17.91695 c 0.52025,-3.15518 2.96599,-5.82472 5.93928,-6.80851 0.79244,-0.26221 1.62233,-0.40466 2.46324,-0.40466 z"
       id="rect19564"
       sodipodi:nodetypes="ssssssss" />
    <ellipse
       style="fill:#4d4d4d"
       id="path23338"
       cx="248.37126"
       cy="352.66949"
       rx="2.8284271"
       ry="2.6516504" />
    <rect
       style="fill:#cccccc"
       id="rect23410"
       width="2.125"
       height="2"
       x="284.24518"
       y="328.48734"
       ry="0.59375"
       transform="rotate(5.8983946)" />
    <rect
       style="fill:#a793ac;stroke-width:1.08219"
       id="rect27852"
       width="76.5"
       height="16.981607"
       x="332.65353"
       y="682.66785"
       ry="8.4908037"
       transform="matrix(0.97309196,-0.23041708,-0.30974402,0.95081998,0,0)" />
    <path
       style="color:#000000;fill:#dedbe3;stroke-width:1.08219;-inkscape-stroke:none"
       d="m 340.58495,678.4325 c 0,0 1.93818,-16.30044 12.28118,-17.82945 10.34301,-1.52901 52.63706,8.54057 52.63706,8.54057 5.43324,2.05075 3.09096,13.07577 3.09096,17.77968 0,4.7039 -3.7869,8.4908 -8.49081,8.4908 l -59.51839,0 c -4.7039,0 -8.4908,-3.7869 -8.4908,-8.4908 0,-4.70391 3.7869,-8.4908 8.4908,-8.4908 z"
       id="rect27852-8"
       transform="matrix(0.97309196,-0.23041708,-0.30974402,0.95081998,0,0)"
       sodipodi:nodetypes="szssssss" />
    <path
       style="color:#000000;fill:#c4b7c8;stroke-width:0.879283;-inkscape-stroke:none"
       d="m 126.49132,468.08545 c 0,0 3.72439,-15.32713 11.71744,-18.86241 7.99308,-3.53529 38.40848,-3.04495 38.40848,-3.04495 3.80201,0.75638 0.50712,11.33599 -0.14691,15.64356 -0.65404,4.30758 -4.02923,8.55713 -7.56772,9.52816 l -44.77241,12.2864 c -3.53847,0.97102 -5.86063,-1.71507 -5.2066,-6.02263 0.65403,-4.30759 4.02923,-8.55714 7.56772,-9.52816 z"
       id="rect27852-8-7-9"
       sodipodi:nodetypes="szssssss" />
    <path
       style="color:#000000;fill:#dedbe3;stroke-width:0.879283;-inkscape-stroke:none"
       d="m 126.54965,464.07108 c 0,0 3.72439,-15.32713 11.71744,-18.86241 7.99308,-3.53529 38.40848,-3.04495 38.40848,-3.04495 3.80201,0.75638 0.50712,11.33599 -0.14691,15.64356 -0.65404,4.30758 -4.02923,8.55713 -7.56772,9.52816 l -44.77241,12.2864 c -3.53847,0.97102 -5.86063,-1.71507 -5.2066,-6.02263 0.65403,-4.30759 4.02923,-8.55714 7.56772,-9.52816 z"
       id="rect27852-8-7"
       sodipodi:nodetypes="szssssss" />
    <path
       style="color:#000000;fill:#e3dbdb;-inkscape-stroke:none"
       d="m 153.44216,287.08536 c 0,18.13154 -7.90356,36.90807 -21.46229,46.11575 -7.7597,5.26958 -18.08489,5.50304 -28.03518,5.50304 -27.336701,0 -57.997474,-23.11052 -57.997478,-51.61879 0,-1.93059 0.209676,-16.20657 -2.015998,-18.26084 -6.468321,-5.97017 -11.975226,0.0707 -9.034068,-4.73039 12.311878,-20.09768 21.914414,-16.72395 21.914414,-16.72395 0,0 -11.164873,-1.79152 -9.602539,-3.37373 8.411476,-8.51848 10.172953,-17.90489 22.985669,-17.90489 1.296817,1.1505 -1.68965,-3.34192 0.296885,-18.84994 1.490749,-11.63764 6.799084,-22.66533 8.594583,-22.09575 31.089392,9.86242 37.742012,42.0382 39.570082,39.59673 8.04755,-10.74784 17.08515,-20.35938 22.98192,-19.99116 15.05698,19.53135 3.58475,52.87073 6.75176,59.58813 3.23524,6.86212 5.05224,14.58267 5.05224,22.74579 z"
       id="path28695"
       sodipodi:nodetypes="sssssscscssscss" />
    <path
       style="color:#000000;fill:#1a1a1a;stroke-width:0.881822;-inkscape-stroke:none"
       d="m 122.5569,291.77513 c 1.85927,0 2.67673,2.72798 1.98814,5.18493 l -2.69897,9.63014 c -0.6886,2.45696 -2.73976,4.43494 -4.59903,4.43494 -1.85927,0 -2.80173,-1.97798 -2.11313,-4.43494 l 2.69897,-9.63014 c 0.31952,-1.14007 -7.94259,-1.802 -7.19162,-2.58605 0.86744,-0.90565 10.91911,-2.59888 11.91564,-2.59888 z"
       id="rect28843"
       sodipodi:nodetypes="ssssssss" />
    <path
       style="color:#000000;fill:#1a1a1a;stroke-width:0.720715;-inkscape-stroke:none"
       d="m 142.04118,300.35532 c -1.51776,0 -3.46819,2.23225 -4.06171,4.24273 l -2.32634,7.88015 c -0.59352,2.01049 0.15054,3.62903 1.6683,3.62903 1.51778,0 3.21747,-1.61854 3.81099,-3.62903 l 2.32634,-7.88015 c 0.27541,-0.93291 4.32609,3.29842 4.08184,2.65684 -0.28213,-0.74106 -4.68593,-6.89957 -5.49942,-6.89957 z"
       id="rect28843-7"
       sodipodi:nodetypes="ssssssss" />
    <path
       style="color:#000000;fill:#501616;-inkscape-stroke:none"
       d="m 247.68395,201.83095 27.39978,-1.46285 c 2.33312,-0.12457 4.54871,1.90457 4.2174,4.2174 0,0 0.38298,6.23013 -5.89764,13.26113 -9.63274,7.61511 -17.14827,4.06344 -25.8471,-1.03414 -3.38781,-2.38212 -11.59992,-10.91777 -11.61286,-12.3628 -0.0105,-1.16817 9.4073,-2.49418 11.74042,-2.61874 z"
       id="rect29563"
       transform="rotate(33.558147)"
       sodipodi:nodetypes="sssccss" />
    <path
       style="color:#000000;fill:#ececec;-inkscape-stroke:none"
       d="m 105.23044,311.16479 4.81444,2.90891 -5.99409,2.98024 z M 107.4375,315 Z"
       id="rect31796"
       sodipodi:nodetypes="cccc" />
    <path
       style="color:#000000;fill:#ececec;stroke-width:0.774057;-inkscape-stroke:none"
       d="m 114.53182,316.70217 3.59725,2.10487 -3.75781,3.09523 z m 1.92222,3.13087 z"
       id="rect31796-4"
       sodipodi:nodetypes="cccc" />
    <path
       style="color:#000000;fill:#c83737;stroke-width:0.983431;-inkscape-stroke:none"
       d="m 291.37403,-185.8308 c 0,2.61985 -1.69327,4.65857 -4.95175,5.96098 -3.25849,1.3024 -7.26698,1.28852 -10.50676,-0.0364 -3.23978,-1.32491 -5.42977,-4.33766 -5.39248,-6.95738 0,0 6.24218,-2.61967 10.36459,-2.60547 1.93865,0.007 4.05867,0.1041 6.0938,0.95511 2.29241,0.95861 4.3926,2.68316 4.3926,2.68316 z"
       id="path32689"
       transform="matrix(0.76131527,0.64838188,0.63335195,-0.77386388,0,0)"
       sodipodi:nodetypes="csscssc" />
    <path
       style="color:#000000;fill:#c8b7b7;stroke-width:1.82078;-inkscape-stroke:none"
       d="m 118.39987,224.90813 5.6586,-7.00036 1.77978,14.4895 2.16636,15.75043 z"
       id="rect36119"
       sodipodi:nodetypes="ccccc" />
    <ellipse
       style="fill:#112b00"
       id="path39118"
       cx="43.487064"
       cy="333.04727"
       rx="18.384777"
       ry="19.091883" />
    <path
       style="color:#000000;fill:#e3dedb;-inkscape-stroke:none"
       d="m 329.23807,254.51833 c 0,7.04163 -12.1096,13.18904 -21.08423,13.18904 -8.97463,0 -30.42964,-5.95911 -30.42964,-13.00074 0,-7.04163 21.45501,-12.49926 30.42964,-12.49926 1.64818,0 6.42295,-20.27141 11.21359,-27.13631 1.26488,-1.81256 -9.05364,-4.2199 -10.03642,-12.53332 -0.79237,-6.70277 9.49686,-11.75299 11.82265,-11.8294 19.44664,-0.63885 19.01352,9.46495 19.71848,11.29144 1.38674,3.59295 -11.63407,49.09888 -11.63407,52.51855 z"
       id="path40502"
       transform="rotate(39.697793)"
       sodipodi:nodetypes="sssssssss" />
    <path
       style="color:#000000;fill:#112b00;-inkscape-stroke:none"
       d="m 57.308381,330.84 c 0,0 4.416009,19.8103 9.607167,28.32055 3.22581,5.2883 12.915523,13.36178 12.915523,13.36178 0.901647,1.15975 -8.150841,16.42255 -15.586958,20.94274 -5.472666,3.32667 -16.191323,8.86084 -18.963608,3.08752 -4.537138,-9.44865 -8.555447,-30.12798 -9.69275,-32.83696 l -9.169583,-21.84134 c -1.137305,-2.70897 0.127985,-5.80543 2.836965,-6.94274 l 12.713606,-5.33751 c 2.70898,-1.1373 15.339638,1.24596 15.339638,1.24596 z"
       id="rect39292"
       sodipodi:nodetypes="casasssssc" />
    <path
       style="color:#000000;fill:#ffcc00;stroke-width:1.07121;-inkscape-stroke:none"
       d="m 370.25695,97.006684 c 0,9.258136 -0.0418,29.868006 0.0203,47.792886 0.0589,17.00716 -43.05428,-2.46449 -66.02728,-2.46449 -12.65466,0 -24.47758,2.5545 -33.5213,-2.68585 -17.74084,-10.27988 -32.4857,-26.29859 -32.4857,-42.642546 0,-13.39832 8.72006,-26.945273 24.04161,-37.573545 3.20276,-2.221696 -6.05927,-25.627043 -10.97914,-39.196852 -1.89908,-5.237965 -2.31284,-9.227683 2.77948,-7.358603 38.28551,14.052276 37.52701,32.491153 42.92033,31.253099 5.49418,-1.261207 8.62061,-1.202499 14.24472,-1.202499 6.6875,0 9.90715,-0.02258 15.60555,1.728201 8.56657,2.631999 6.2051,-17.906472 52.23417,-27.921269 11.21156,-2.43936 -10.65309,47.072795 -8.962,71.95896 0.18788,2.764795 0.12928,8.312508 0.12928,8.312508 z"
       id="path46051"
       sodipodi:nodetypes="ssssssssssssscs" />
    <path
       style="color:#000000;fill:#1a1a1a;-inkscape-stroke:none"
       d="m 295.75,90.375 c 0,5.384776 -12.40202,16.5 -24,16.5 -11.59798,0 -22.375,-8.740224 -22.375,-14.125 0,-5.384776 10.02702,-7.5 21.625,-7.5 11.59798,0 24.75,-0.259776 24.75,5.125 z"
       id="path46954"
       sodipodi:nodetypes="sssss" />
    <path
       style="color:#000000;fill:#1a1a1a;stroke-width:1.06523;-inkscape-stroke:none"
       d="m 332.55122,61.002602 c 0,2.485588 -0.50124,4.756689 -1.32862,6.492527 -0.98803,2.072893 -2.44118,3.382473 -4.06127,3.382473 -2.97674,0 -5.38988,-4.421188 -5.38988,-9.875 0,-5.453812 2.41314,-9.875 5.38988,-9.875 2.97675,0 5.38989,4.421188 5.38989,9.875 z"
       id="path49146"
       sodipodi:nodetypes="ssssss" />
    <path
       style="color:#000000;fill:#1a1a1a;stroke-width:0.906243;-inkscape-stroke:none"
       d="m 334.77597,73.539461 c -0.60289,1.582133 -4.49336,-0.886773 -8.14332,-2.527475 -4.28379,-1.925621 -8.35227,-3.393167 -7.74938,-4.9753 0.60289,-1.582133 4.19304,-0.721094 8.8292,0.516589 4.63616,1.237683 7.6664,5.404053 7.0635,6.986186 z"
       id="path49989"
       sodipodi:nodetypes="sssss" />
    <path
       style="color:#000000;fill:#1a1a1a;stroke-width:0.954757;-inkscape-stroke:none"
       d="m 278.56814,57.245035 c -0.16378,2.245149 0.13062,4.319699 0.74935,5.925816 0.7388,1.917986 1.94001,3.167966 3.37543,3.242752 2.63741,0.137413 5.06681,-3.744703 5.42618,-8.67095 0.35938,-4.926247 -1.48734,-9.031156 -4.12476,-9.168568 -2.63743,-0.137413 -5.06682,3.744703 -5.4262,8.67095 z"
       id="path49146-8"
       sodipodi:nodetypes="ssssss" />
    <path
       style="color:#000000;fill:#1a1a1a;stroke-width:0.670323;-inkscape-stroke:none"
       d="m 273.22909,65.795803 c -0.009,-1.069014 3.9025,-1.159865 7.36053,-1.60784 4.05855,-0.525769 7.80004,-1.219101 7.80879,-0.150083 0.009,1.069021 -3.15705,1.913852 -7.28458,2.937295 -4.12753,1.023445 -7.87601,-0.110347 -7.88474,-1.179372 z"
       id="path49989-7"
       sodipodi:nodetypes="sssss" />
    <path
       style="color:#000000;fill:#ffdd55;-inkscape-stroke:none"
       d="m 381.48412,344.18423 c 0,13.96125 -9.41833,25.27907 -21.03643,25.27907 -11.6181,0 -21.03642,-11.31783 -21.03642,-25.27907 0,-13.96124 9.74991,-28.03494 21.03642,-25.27906 28.23511,6.89429 21.03643,11.31782 21.03643,25.27906 z"
       id="path50553"
       sodipodi:nodetypes="sssss" />
    <ellipse
       style="fill:#333333;stroke-width:1.08347"
       id="path51235"
       cx="355"
       cy="269.5"
       rx="13.5"
       ry="17" />
    <path
       style="color:#000000;fill:#333333;stroke-width:0.982389;-inkscape-stroke:none"
       d="m 367.49701,265.92061 c 0,-46.49436 -39.94279,-84.21528 -89.28849,-84.32171 -49.3457,-0.10641 -89.47135,37.44179 -89.69727,83.93567 l 4.11393,0.2629 c 0,0 7.51065,-67.85476 78.87848,-68.39807 84.69867,-0.64479 81.99634,68.52122 81.99634,68.52122 z"
       id="path53223"
       sodipodi:nodetypes="csccscc" />
    <path
       style="color:#000000;fill:#d4aa00;-inkscape-stroke:none"
       d="m 333.16573,41.751301 c 1.51756,1.77081 9.27779,10.661741 5.98834,8.862214 l -10.55133,-5.772209 c 2.98301,-1.785033 4.56299,-3.090005 4.56299,-3.090005 z"
       id="path54711"
       sodipodi:nodetypes="cscc" />
    <path
       style="color:#000000;fill:#d4aa00;stroke-width:0.909325;-inkscape-stroke:none"
       d="m 292.49038,40.59587 c -1.96418,0.814542 -11.97103,4.859397 -8.1751,4.587767 l 12.17597,-0.871282 c -2.66874,-2.2574 -4.00087,-3.716485 -4.00087,-3.716485 z"
       id="path54711-5"
       sodipodi:nodetypes="cscc" />
    <path
       style="fill:#d4aa00"
       id="path57423"
       sodipodi:type="arc"
       sodipodi:cx="299.40408"
       sodipodi:cy="-47.401413"
       sodipodi:rx="8.7581978"
       sodipodi:ry="1.472223"
       sodipodi:start="0"
       sodipodi:end="3.0787433"
       sodipodi:open="true"
       sodipodi:arc-type="arc"
       d="m 308.16228,-47.401413 a 8.7581978,1.472223 0 0 1 -8.48302,1.471496 8.7581978,1.472223 0 0 1 -9.01608,-1.379029"
       transform="matrix(0.80940659,0.58724865,-0.41578377,0.9094635,0,0)" />
    <path
       style="fill:#d4aa00"
       id="path57423-9"
       sodipodi:type="arc"
       sodipodi:cx="296.6991"
       sodipodi:cy="34.910995"
       sodipodi:rx="8.7581978"
       sodipodi:ry="1.472223"
       sodipodi:start="0"
       sodipodi:end="3.0787433"
       sodipodi:open="true"
       sodipodi:arc-type="arc"
       transform="matrix(0.93679204,0.34988665,-0.15793505,0.9874495,0,0)"
       d="m 305.45729,34.910995 a 8.7581978,1.472223 0 0 1 -8.48302,1.471497 8.7581978,1.472223 0 0 1 -9.01608,-1.379029" />
    <ellipse
       style="fill:#1a1a1a;stroke-width:0.789956"
       id="path57961"
       cx="258.59811"
       cy="162.34171"
       rx="1.9917403"
       ry="14.891988"
       transform="matrix(0.97955301,-0.20118625,0.10460037,0.99451433,0,0)" />
  </g>
</svg>
