<svg id="visual" viewBox="0 0 900 600" width="900" height="600" xmlns="http://www.w3.org/2000/svg" xmlns:xlink="http://www.w3.org/1999/xlink" version="1.1"><path d="M0 17L21.5 16.8C43 16.7 86 16.3 128.8 21.2C171.7 26 214.3 36 257.2 40.5C300 45 343 44 385.8 37.8C428.7 31.7 471.3 20.3 514.2 17.8C557 15.3 600 21.7 642.8 24.3C685.7 27 728.3 26 771.2 29.3C814 32.7 857 40.3 878.5 44.2L900 48L900 0L878.5 0C857 0 814 0 771.2 0C728.3 0 685.7 0 642.8 0C600 0 557 0 514.2 0C471.3 0 428.7 0 385.8 0C343 0 300 0 257.2 0C214.3 0 171.7 0 128.8 0C86 0 43 0 21.5 0L0 0Z" fill="#fafafa" stroke-linecap="round" stroke-linejoin="miter"></path></svg>