<svg id="visual" viewBox="0 0 900 600" width="900" height="600" xmlns="http://www.w3.org/2000/svg" xmlns:xlink="http://www.w3.org/1999/xlink" version="1.1"><path d="M0 554L21.5 559.7C43 565.3 86 576.7 128.8 581.7C171.7 586.7 214.3 585.3 257.2 582.5C300 579.7 343 575.3 385.8 571C428.7 566.7 471.3 562.3 514.2 561C557 559.7 600 561.3 642.8 566.3C685.7 571.3 728.3 579.7 771.2 578.2C814 576.7 857 565.3 878.5 559.7L900 554L900 601L878.5 601C857 601 814 601 771.2 601C728.3 601 685.7 601 642.8 601C600 601 557 601 514.2 601C471.3 601 428.7 601 385.8 601C343 601 300 601 257.2 601C214.3 601 171.7 601 128.8 601C86 601 43 601 21.5 601L0 601Z" fill="#fafafa" stroke-linecap="round" stroke-linejoin="miter"></path></svg>