<svg id="visual" viewBox="0 0 900 600" width="900" height="600" xmlns="http://www.w3.org/2000/svg" xmlns:xlink="http://www.w3.org/1999/xlink" version="1.1">
    <rect x="0" y="0" width="900" height="600" fill="#f4f4f4"></rect>
    <defs>
        <linearGradient id="grad1_0" x1="33.3%" y1="100%" x2="100%" y2="0%">
            <stop offset="20%" stop-color="#f4f4f4" stop-opacity="1"></stop>
            <stop offset="80%" stop-color="#f4f4f4" stop-opacity="1"></stop>
        </linearGradient>
    </defs>
    <defs>
        <linearGradient id="grad2_0" x1="0%" y1="100%" x2="66.7%" y2="0%">
            <stop offset="20%" stop-color="#f4f4f4" stop-opacity="1"></stop>
            <stop offset="80%" stop-color="#f4f4f4" stop-opacity="1"></stop>
        </linearGradient>
    </defs>
    <g transform="translate(900, 600)">
        <path d="M-378.6 0C-365.6 -49.8 -352.7 -99.6 -326.1 -135.1C-299.6 -170.6 -259.3 -191.9 -229.8 -229.8C-200.3 -267.7 -181.4 -322.2 -144.9 -349.8C-108.4 -377.3 -54.2 -378 0 -378.6L0 0Z" fill="#ff6363"></path>
    </g>
    <g transform="translate(0, 0)">
        <path d="M378.6 0C379.5 55.8 380.5 111.6 349.8 144.9C319.1 178.1 256.7 188.7 219.2 219.2C181.7 249.7 169 300 136.6 329.8C104.2 359.7 52.1 369.1 0 378.6L0 0Z" fill="#ff6363"></path>
    </g>
</svg>